<svg width="211" height="73" viewBox="0 0 211 73" fill="none" xmlns="http://www.w3.org/2000/svg">
<path d="M4.06173 28.7895C3.61114 28.6636 3.19712 28.7243 2.81965 28.9715C2.44349 29.2154 2.14703 29.6096 1.93027 30.1539C1.77788 30.5366 1.7049 30.8879 1.71133 31.2077C1.71777 31.5275 1.79106 31.7994 1.93121 32.0234C2.07135 32.2474 2.26779 32.4116 2.52052 32.5161C2.73166 32.6002 2.93382 32.6252 3.12698 32.5913C3.32145 32.5541 3.50663 32.473 3.6825 32.3481C3.85507 32.2219 4.01838 32.0709 4.17241 31.8953C4.32644 31.7196 4.46958 31.5377 4.60184 31.3496L5.21773 30.494C5.4592 30.1468 5.7261 29.8269 6.01843 29.5343C6.31208 29.2384 6.6302 28.9962 6.97281 28.8078C7.31674 28.616 7.68485 28.5027 8.07716 28.4677C8.46947 28.4328 8.88502 28.5028 9.32381 28.6775C9.91766 28.914 10.3802 29.2739 10.7113 29.7574C11.0391 30.2396 11.2158 30.8183 11.2412 31.4936C11.2647 32.1642 11.1148 32.9053 10.7916 33.7169C10.4777 34.5054 10.083 35.1414 9.60764 35.6248C9.1336 36.1049 8.59731 36.4151 7.99876 36.5551C7.40153 36.6919 6.76114 36.6395 6.0776 36.3979L6.79686 34.5916C7.16038 34.7057 7.49736 34.7138 7.8078 34.6157C8.11824 34.5176 8.39228 34.3382 8.62993 34.0773C8.86889 33.8132 9.06457 33.4898 9.21696 33.107C9.37592 32.7078 9.45579 32.3345 9.45657 31.987C9.45536 31.6348 9.38169 31.3303 9.23555 31.0733C9.08612 30.8151 8.86689 30.6265 8.57788 30.5076C8.31263 30.4058 8.06401 30.3966 7.83202 30.4801C7.59673 30.5622 7.36683 30.7172 7.14232 30.945C6.91583 31.1683 6.68413 31.443 6.44725 31.7691L5.69117 32.8039C5.14436 33.5532 4.55664 34.0837 3.92803 34.3952C3.29743 34.7022 2.61922 34.7112 1.8934 34.4222C1.29625 34.1844 0.837695 33.8145 0.517748 33.3125C0.199115 32.8072 0.0277445 32.2249 0.00363625 31.5655C-0.0237707 30.9048 0.10375 30.2198 0.3862 29.5104C0.67259 28.7912 1.04888 28.211 1.51507 27.7698C1.97927 27.3239 2.49417 27.0339 3.05975 26.8999C3.62203 26.7645 4.19052 26.8054 4.76523 27.0228L4.06173 28.7895Z" fill="white"></path>
<path d="M7.11847 19.7327L5.90222 18.608L11.8117 12.2177L13.0279 13.3425L10.7387 15.818L17.5317 22.1L16.2008 23.5392L9.40776 17.2572L7.11847 19.7327Z" fill="white"></path>
<path d="M24.7581 3.77689L26.5457 2.93436L29.5842 9.38131C29.9173 10.088 30.0432 10.7883 29.962 11.4822C29.884 12.1746 29.6158 12.8133 29.1574 13.3984C28.6975 13.9802 28.0661 14.4604 27.263 14.8389C26.4567 15.2189 25.6828 15.4011 24.9414 15.3855C24.1984 15.3666 23.535 15.167 22.9513 14.7865C22.3676 14.406 21.9092 13.8624 21.5762 13.1557L18.5376 6.70872L20.3252 5.86619L23.2934 12.1638C23.4872 12.5749 23.7497 12.8987 24.081 13.1352C24.4155 13.3701 24.7913 13.5011 25.2085 13.5283C25.6241 13.5522 26.0584 13.4575 26.5113 13.244C26.9642 13.0305 27.3137 12.7559 27.5598 12.4201C27.8076 12.0795 27.9457 11.7062 27.9742 11.3002C28.0027 10.8942 27.92 10.4856 27.7262 10.0745L24.7581 3.77689Z" fill="white"></path>
<path d="M39.5638 10.9096L35.8702 11.0619L35.4206 0.162115L39.1887 0.00665893C40.2708 -0.0379872 41.2095 0.141871 42.0045 0.546232C42.8029 0.946898 43.4283 1.54485 43.8805 2.3401C44.3327 3.13535 44.5821 4.0989 44.6288 5.23074C44.6756 6.36614 44.5048 7.35058 44.1162 8.18407C43.7312 9.01741 43.1521 9.66861 42.3789 10.1377C41.6092 10.6066 40.6708 10.8639 39.5638 10.9096ZM37.7743 9.27205L39.3976 9.20509C40.1568 9.17376 40.7845 9.00925 41.2804 8.71157C41.7763 8.41034 42.1405 7.9777 42.3731 7.41365C42.6056 6.84606 42.7046 6.14535 42.6702 5.31155C42.6358 4.47774 42.4796 3.79113 42.2014 3.25171C41.9231 2.70874 41.5282 2.31097 41.0166 2.05841C40.5085 1.80215 39.8854 1.68924 39.1474 1.71969L37.4656 1.78907L37.7743 9.27205Z" fill="white"></path>
<path d="M54.2753 0.758829L51.511 11.3119L49.5993 10.8111L52.3636 0.258069L54.2753 0.758829Z" fill="white"></path>
<path d="M67.5297 13.0216C66.9423 14.0398 66.2486 14.8018 65.4484 15.3077C64.653 15.8124 63.8169 16.0679 62.9399 16.0745C62.0659 16.0828 61.2153 15.8483 60.3878 15.371C59.5603 14.8937 58.9299 14.2738 58.4965 13.5114C58.068 12.7476 57.8715 11.8943 57.907 10.9514C57.9475 10.0072 58.2604 9.02754 58.846 8.01244C59.4333 6.99427 60.1247 6.23288 60.92 5.72827C61.7202 5.22235 62.5572 4.96522 63.4312 4.95689C64.3082 4.95034 65.1604 5.18572 65.9878 5.66304C66.8153 6.14035 67.4442 6.75935 67.8745 7.52003C68.3079 8.28249 68.5044 9.13582 68.464 10.08C68.4284 11.0229 68.117 12.0034 67.5297 13.0216ZM65.8086 12.0288C66.222 11.3121 66.4584 10.6429 66.5178 10.0212C66.582 9.3982 66.49 8.84702 66.2418 8.36766C65.9953 7.88523 65.6152 7.49585 65.1015 7.19952C64.5878 6.90319 64.0605 6.76912 63.5195 6.79731C62.9802 6.82242 62.4555 7.01783 61.9453 7.38354C61.4399 7.74795 60.9805 8.28851 60.567 9.00523C60.1536 9.72195 59.9148 10.3918 59.8506 11.0148C59.7912 11.6365 59.8848 12.1886 60.1312 12.671C60.3795 13.1504 60.7604 13.5382 61.2741 13.8345C61.7878 14.1309 62.3143 14.2665 62.8535 14.2414C63.3945 14.2132 63.9177 14.0169 64.4231 13.6525C64.9333 13.2868 65.3952 12.7455 65.8086 12.0288Z" fill="white"></path>
<path d="M30.1543 63.248V28.339H53.2679V34.4242H37.535V42.7424H51.7338V48.8276H37.535V63.248H30.1543Z" fill="white"></path>
<path d="M57.6742 63.248V37.0662H64.714V41.6344H64.9867C65.464 40.0094 66.2651 38.7821 67.3901 37.9526C68.5151 37.1117 69.8105 36.6912 71.2765 36.6912C71.6401 36.6912 72.0322 36.714 72.4526 36.7594C72.8731 36.8049 73.2424 36.8674 73.5605 36.9469V43.3901C73.2196 43.2878 72.7481 43.1969 72.1458 43.1174C71.5435 43.0378 70.9924 42.998 70.4924 42.998C69.4242 42.998 68.4696 43.231 67.6287 43.6969C66.7992 44.1515 66.1401 44.7878 65.6515 45.606C65.1742 46.4242 64.9355 47.3674 64.9355 48.4355V63.248H57.6742Z" fill="white"></path>
<path d="M84.0307 63.7424C82.3603 63.7424 80.8716 63.4526 79.5648 62.873C78.258 62.2821 77.2239 61.4128 76.4625 60.2651C75.7125 59.106 75.3375 57.6628 75.3375 55.9355C75.3375 54.481 75.6046 53.2594 76.1387 52.2708C76.6728 51.2821 77.4 50.4867 78.3205 49.8844C79.2409 49.2821 80.2864 48.8276 81.4568 48.5208C82.6387 48.214 83.8773 47.998 85.1728 47.873C86.6955 47.714 87.9228 47.5662 88.8546 47.4299C89.7864 47.2821 90.4625 47.0662 90.883 46.7821C91.3034 46.498 91.5136 46.0776 91.5136 45.5208V45.4185C91.5136 44.339 91.1727 43.5037 90.4909 42.9128C89.8205 42.3219 88.8659 42.0265 87.6273 42.0265C86.3205 42.0265 85.2807 42.3162 84.508 42.8958C83.7353 43.464 83.2239 44.1799 82.9739 45.0435L76.258 44.498C76.5989 42.9071 77.2694 41.5321 78.2694 40.373C79.2694 39.2026 80.5591 38.3049 82.1387 37.6799C83.7296 37.0435 85.5705 36.7253 87.6614 36.7253C89.1159 36.7253 90.508 36.8958 91.8375 37.2367C93.1784 37.5776 94.3659 38.106 95.4 38.8219C96.4455 39.5378 97.2693 40.4583 97.8716 41.5833C98.4739 42.6969 98.775 44.0321 98.775 45.589V63.248H91.8886V59.6174H91.6841C91.2636 60.4355 90.7011 61.1571 89.9966 61.7821C89.2921 62.3958 88.4455 62.8787 87.4569 63.231C86.4682 63.5719 85.3262 63.7424 84.0307 63.7424ZM86.1103 58.731C87.1784 58.731 88.1216 58.5208 88.9398 58.1003C89.758 57.6685 90.4 57.089 90.8659 56.3617C91.3318 55.6344 91.5648 54.8105 91.5648 53.8901V51.1117C91.3375 51.2594 91.025 51.3958 90.6273 51.5208C90.2409 51.6344 89.8034 51.7424 89.3148 51.8446C88.8262 51.9355 88.3375 52.0208 87.8489 52.1003C87.3603 52.1685 86.9171 52.231 86.5194 52.2878C85.6671 52.4128 84.9228 52.6117 84.2864 52.8844C83.65 53.1571 83.1557 53.5265 82.8034 53.9924C82.4512 54.4469 82.275 55.0151 82.275 55.6969C82.275 56.6855 82.633 57.4412 83.3489 57.964C84.0762 58.4753 84.9966 58.731 86.1103 58.731Z" fill="white"></path>
<path d="M104.409 63.248V37.0662H111.329V41.6855H111.636C112.181 40.1515 113.09 38.9412 114.363 38.0549C115.636 37.1685 117.159 36.7253 118.931 36.7253C120.727 36.7253 122.255 37.1742 123.516 38.0719C124.778 38.9583 125.619 40.1628 126.039 41.6855H126.312C126.846 40.1855 127.812 38.9867 129.21 38.089C130.619 37.1799 132.284 36.7253 134.204 36.7253C136.647 36.7253 138.63 37.5037 140.153 39.0605C141.687 40.606 142.454 42.7992 142.454 45.6401V63.248H135.21V47.0719C135.21 45.6174 134.823 44.5265 134.051 43.7992C133.278 43.0719 132.312 42.7083 131.153 42.7083C129.835 42.7083 128.806 43.1287 128.068 43.9696C127.329 44.7992 126.96 45.8958 126.96 47.2594V63.248H119.92V46.9185C119.92 45.6344 119.551 44.6117 118.812 43.8503C118.085 43.089 117.124 42.7083 115.931 42.7083C115.124 42.7083 114.397 42.9128 113.749 43.3219C113.113 43.7196 112.607 44.2821 112.232 45.0094C111.857 45.7253 111.67 46.5662 111.67 47.5321V63.248H104.409Z" fill="white"></path>
<path d="M160.122 63.7594C157.428 63.7594 155.11 63.214 153.167 62.123C151.235 61.0208 149.747 59.464 148.701 57.4526C147.656 55.4299 147.133 53.0378 147.133 50.2765C147.133 47.5833 147.656 45.2196 148.701 43.1855C149.747 41.1515 151.218 39.5662 153.116 38.4299C155.025 37.2935 157.264 36.7253 159.832 36.7253C161.559 36.7253 163.167 37.0037 164.656 37.5605C166.156 38.106 167.463 38.9299 168.576 40.0321C169.701 41.1344 170.576 42.5208 171.201 44.1912C171.826 45.8503 172.139 47.7935 172.139 50.0208V52.0151H150.031V47.5151H165.303C165.303 46.4696 165.076 45.5435 164.622 44.7367C164.167 43.9299 163.536 43.2992 162.73 42.8446C161.934 42.3787 161.008 42.1458 159.951 42.1458C158.849 42.1458 157.872 42.4015 157.019 42.9128C156.178 43.4128 155.519 44.089 155.042 44.9412C154.565 45.7821 154.32 46.7196 154.309 47.7537V52.0321C154.309 53.3276 154.548 54.4469 155.025 55.3901C155.514 56.3333 156.201 57.0605 157.087 57.5719C157.974 58.0833 159.025 58.339 160.241 58.339C161.048 58.339 161.786 58.2253 162.457 57.998C163.127 57.7708 163.701 57.4299 164.178 56.9753C164.656 56.5208 165.019 55.964 165.269 55.3049L171.985 55.748C171.644 57.3617 170.945 58.7708 169.889 59.9753C168.843 61.1685 167.491 62.1003 165.832 62.7708C164.184 63.4299 162.281 63.7594 160.122 63.7594Z" fill="white"></path>
<path d="M190.901 25.0918L180.8 59.1699C180.659 59.6387 180.612 60.0371 180.612 60.3418C180.612 61.1855 181.011 61.5605 181.597 61.5605C182.3 61.5605 183.355 60.9512 184.503 57.7871L185.347 55.4668H186.261L185.065 58.9824C183.706 62.9199 181.011 63.9277 178.667 63.9277C175.69 63.9277 174.355 62.2871 174.355 59.6621C174.355 58.6543 174.542 57.5293 174.917 56.2871L182.44 31.2324C182.581 30.7168 182.675 30.2715 182.675 29.8965C182.675 28.6543 181.808 28.0684 179.417 28.0684L179.769 27.0605C184.292 27.0137 187.62 26.334 190.901 25.0918Z" fill="#FF8D28"></path>
<path d="M207.706 37.7715C209.933 37.7715 210.894 39.3652 210.894 42.1074C210.894 48.1309 206.347 57.1309 201.425 63.084C198.378 66.7637 194.347 70.0684 189.94 71.5684C188.558 72.0605 187.362 72.2715 186.565 72.2715C184.48 72.2715 183.214 71.2871 183.214 69.5762C183.214 67.9121 184.573 66.623 186.565 66.623C188.558 66.623 190.269 67.8652 191.698 69.9043C193.667 68.9668 195.753 67.584 197.933 65.5215L194.159 42.5762C193.855 40.8418 193.62 40.2793 192.94 40.2793C192.284 40.2793 191.745 40.8887 190.644 43.8652L189.8 46.1855H188.886L190.081 42.6934C191.44 38.8027 193.55 37.7715 196.011 37.7715C198.612 37.7715 200.206 38.9199 200.792 42.9512L203.042 59.4043C205.737 55.4902 207.87 51.1309 208.925 47.2168C206.581 45.9277 204.472 43.748 204.472 41.123C204.472 39.0371 205.714 37.7715 207.706 37.7715Z" fill="#FF8D28"></path>
</svg>